<?xml version="1.0" encoding="utf-8"?>
<!-- Generator: Adobe Illustrator 24.1.0, SVG Export Plug-In . SVG Version: 6.00 Build 0)  -->
<svg version="1.1" id="圖層_1" xmlns="http://www.w3.org/2000/svg" xmlns:xlink="http://www.w3.org/1999/xlink" x="0px" y="0px"
	 viewBox="0 0 109.47 48.18" style="enable-background:new 0 0 109.47 48.18;" xml:space="preserve">
<style type="text/css">
	.st0{fill:#FFFFFF;}
</style>
<g>
	<g>
		<path class="st0" d="M11.72,36.55l-3.4,11.57h1.05l0.73-2.61h3.46l0.68,2.61h3.52l-3.2-11.57H11.72z M10.39,44.55l1.5-5.25
			l1.36,5.25H10.39z M35.98,36.55l-1.84,6.99l-1.72-6.99h-1.96l-1.74,6.97l-1.74-6.97h-3.48l2.96,11.57h2.11l1.57-6.05h0.03
			l1.53,6.05h2.38l2.84-11.57H35.98z M39.57,36.55l-3.4,11.57h1.05l0.73-2.61h3.46l0.68,2.61h3.52l-3.2-11.57H39.57z M38.24,44.55
			l1.5-5.25l1.36,5.25H38.24z M9.27,36.55H0.06v0.95H2.9v10.62h3.54V37.49h2.83V36.55z M98.31,42.07c1.24-0.48,1.86-1.32,1.86-2.53
			c0-1.84-1.15-2.99-2.36-2.99H91v11.57h3.51v-5.59h0.4c0.47,0,0.58,0.01,0.58,0.01l2.92,5.59l3.17,0l-3.2-5.9L98.31,42.07z
			 M95.01,41.57h-0.5V37.6h0.5c1.26,0,1.89,0.66,1.89,1.98C96.9,40.91,96.27,41.57,95.01,41.57z M18.93,48.12h3.33V36.55h-3.33
			V48.12z M76.15,42.16h3.27v-0.92h-3.27v-3.7h3.92v-1H72.6v11.57h8.15v-0.98h-4.61V42.16z M85.42,42.16h3.27v-0.92h-3.27v-3.7h3.92
			v-1h-7.46v11.57h8.15v-0.98h-4.61V42.16z M68.37,41.94c1.59-0.38,2.39-1.23,2.39-2.57c0-1.68-1.14-2.82-2.29-2.82h-6.77v11.58
			h6.58c1.69,0,2.97-1.11,2.97-3.14C71.25,43.33,70.29,42.32,68.37,41.94z M65.23,37.5h0.74c1.01,0,1.52,0.65,1.52,1.94
			c0,1.4-0.48,2.1-1.43,2.1h-0.82V37.5z M65.98,47.08h-0.74V42.5h0.68c1.29,0,1.93,0.81,1.93,2.44
			C67.85,46.37,67.23,47.08,65.98,47.08z M53.98,44.21l-5.08-7.66h-2.08v11.57h0.94v-7.16l4.7,7.16h2.46V36.55h-0.94V44.21z"/>
		<g>
			<g>
				<path class="st0" d="M104.5,7.83v-4h1.76c0.35,0,0.62,0.03,0.81,0.11c0.19,0.07,0.33,0.2,0.44,0.38
					c0.11,0.18,0.17,0.38,0.17,0.61c0,0.28-0.09,0.52-0.27,0.72c-0.18,0.19-0.46,0.32-0.84,0.37c0.14,0.07,0.24,0.13,0.32,0.2
					c0.15,0.14,0.3,0.32,0.44,0.54l0.69,1.09h-0.66L106.82,7c-0.15-0.24-0.28-0.42-0.38-0.55c-0.1-0.13-0.19-0.22-0.27-0.27
					c-0.08-0.05-0.16-0.09-0.24-0.11c-0.06-0.01-0.15-0.02-0.29-0.02h-0.61v1.78H104.5z M105.03,5.59h1.13
					c0.24,0,0.43-0.03,0.56-0.08c0.13-0.05,0.24-0.13,0.3-0.24c0.07-0.11,0.1-0.23,0.1-0.36c0-0.19-0.07-0.35-0.2-0.47
					c-0.13-0.12-0.35-0.18-0.64-0.18h-1.25V5.59z"/>
				<path class="st0" d="M102.76,5.83c0,1.84,1.5,3.34,3.34,3.34c1.84,0,3.34-1.5,3.34-3.34c0-1.84-1.5-3.34-3.34-3.34
					C104.25,2.49,102.76,3.99,102.76,5.83z M103.2,5.83c0-1.59,1.3-2.89,2.89-2.89c1.59,0,2.89,1.3,2.89,2.89
					c0,1.59-1.3,2.89-2.89,2.89C104.5,8.72,103.2,7.42,103.2,5.83z"/>
			</g>
			<g>
				<g>
					<path class="st0" d="M55.14,0.95v33h4.51v-33H55.14z M58.4,27.99h-2.01V5.19h2.01V27.99z"/>
					<path class="st0" d="M73.87,22.81V2.6l-2.22-0.02l1.25-2.06h-3.02c-0.25,0.25-1.53,1.72-1.88,2.08h-6.11v20.21l3.99,0.09
						c0,0-3.04,2.95-3.61,3.45v5.26l5.48,0.09v2.5h3.26l0.1-2.59h2.39v-5.26l-2.77,0.01v-1.5h-2.6v1.76c0,0-2.43,0.12-3.39,0.03
						c0.07-0.03,3.9-3.63,4.25-3.86H73.87z M66.38,17.96h-2.6v-2.93h2.6V17.96z M66.38,10.45h-2.84V7.52h2.84V10.45z M68.77,7.52
						h2.88v2.93h-2.88V7.52z M68.77,15.03h2.88v2.93h-2.88V15.03z"/>
				</g>
				<g>
					<path class="st0" d="M13.34,1.27c-0.18-0.08-6.71,9.32-6.78,9.61c0,0,8.44,0,10.34,0c-0.25-0.38-4.37-5.42-4.37-5.42
						c0.64-0.44,1.24-0.86,1.88-1.3c0.57,0.55,5.84,6.78,6,6.91c0.09,1.79,0.18,3.21,0.24,4.92H2.05v-5.02
						c0.3-0.34,8.4-10.75,8.36-10.89C10.96,0.29,13.34,1.27,13.34,1.27z"/>
					<path class="st0" d="M1.66,19.52v13.82h19.36V19.52H1.66z M17.9,28H4.78v-3.36H17.9V28z"/>
				</g>
				<g>
					<path class="st0" d="M46.34,19.88v-8.74l-4.27-0.07v-0.1l0.14-4.75h3.88V1.82l-4.65-0.07V0.52h-2.36l-0.14,1.3h-5.1v4.42
						l3.99,0.09V6.4l-0.14,4.75h-3.61v2.93l10.15,0c0,0.99,0.09,2.25,0.05,3.12H34.09v8.21l10.41-0.01c-0.03,0.77,0,1.71-0.04,2.43
						h-9.99v1.9l5.48,0.1c0,0,1.77,1.93-1.49,4.56c1.27,0.04,2.6,0.07,3.61-0.07c3.82-0.78,4.27-4.15,4.27-4.15v-8.04l-10.51-0.07
						l0.14-2.16H46.34z M40.83,11.08h-1.74V6.33h1.74V11.08z"/>
					<polygon class="st0" points="26.31,1.28 29.66,7.04 30.79,6.73 27.43,0.97 					"/>
					<polygon class="st0" points="26.42,8.16 30.47,15.04 31.59,14.72 27.55,7.85 					"/>
					<polygon class="st0" points="27.76,34.34 28.97,34.42 31.41,17.64 30.2,17.56 					"/>
					<polygon class="st0" points="32.39,10.08 33.38,10.57 36.39,7.61 35.39,7.12 					"/>
					<polygon class="st0" points="43.2,8.14 47.15,10.94 48.02,10.35 44.07,7.55 					"/>
				</g>
				<g>
					<path class="st0" d="M94.82,6.82c0-0.85,0-1.9,0-2.76h4.37V0.52H86.32l0.03,3.57c1.22,0,2.46,0,3.61,0c0,0.91,0,1.98,0,2.83
						h-3.65v26.86h13.11V6.83L94.82,6.82z M91.59,4.16h1.74v2.66h-1.74V4.16z M87.57,10.71h2.25v4.42h-2.25V10.71z M97.56,27.99
						h-9.99v-1.82h9.99V27.99z M97.56,22.04h-9.72v-2.52h3.61l0.14-8.81h1.98v8.74l3.99,0.07V22.04z M97.56,15.13h-2.22v-4.42h2.22
						V15.13z"/>
					<polygon class="st0" points="79.85,0.83 83.32,7.55 84.47,7.27 81,0.55 					"/>
					<polygon class="st0" points="80.03,7.8 83.5,14.51 84.64,14.23 81.17,7.51 					"/>
					<polygon class="st0" points="79.83,33.63 81.03,33.75 84.57,16.39 83.36,16.27 					"/>
				</g>
			</g>
		</g>
	</g>
</g>
</svg>
