<svg id="圖層_1" data-name="圖層 1" xmlns="http://www.w3.org/2000/svg" viewBox="0 0 90.86 90.86"><defs><style>.cls-1{fill:#040000;}</style></defs><g id="quickmark"><rect class="cls-1" width="3.63" height="3.63"/><rect class="cls-1" x="3.63" width="3.63" height="3.63"/><rect class="cls-1" x="7.27" width="3.63" height="3.63"/><rect class="cls-1" x="10.9" width="3.63" height="3.63"/><rect class="cls-1" x="14.54" width="3.63" height="3.63"/><rect class="cls-1" x="18.17" width="3.63" height="3.63"/><rect class="cls-1" x="21.81" width="3.63" height="3.63"/><rect class="cls-1" x="29.07" width="3.63" height="3.63"/><rect class="cls-1" x="39.98" width="3.63" height="3.63"/><rect class="cls-1" x="43.61" width="3.63" height="3.63"/><rect class="cls-1" x="47.24" width="3.63" height="3.63"/><rect class="cls-1" x="50.88" width="3.63" height="3.63"/><rect class="cls-1" x="65.42" width="3.63" height="3.63"/><rect class="cls-1" x="69.05" width="3.63" height="3.63"/><rect class="cls-1" x="72.68" width="3.63" height="3.63"/><rect class="cls-1" x="76.32" width="3.63" height="3.63"/><rect class="cls-1" x="79.95" width="3.63" height="3.63"/><rect class="cls-1" x="83.59" width="3.63" height="3.63"/><rect class="cls-1" x="87.22" width="3.63" height="3.63"/><rect class="cls-1" y="3.63" width="3.63" height="3.63"/><rect class="cls-1" x="21.81" y="3.63" width="3.63" height="3.63"/><rect class="cls-1" x="32.71" y="3.63" width="3.63" height="3.63"/><rect class="cls-1" x="36.34" y="3.63" width="3.63" height="3.63"/><rect class="cls-1" x="65.42" y="3.63" width="3.63" height="3.63"/><rect class="cls-1" x="87.22" y="3.63" width="3.63" height="3.63"/><rect class="cls-1" y="7.27" width="3.63" height="3.63"/><rect class="cls-1" x="7.27" y="7.27" width="3.63" height="3.63"/><rect class="cls-1" x="10.9" y="7.27" width="3.63" height="3.63"/><rect class="cls-1" x="14.54" y="7.27" width="3.63" height="3.63"/><rect class="cls-1" x="21.81" y="7.27" width="3.63" height="3.63"/><rect class="cls-1" x="36.34" y="7.27" width="3.63" height="3.63"/><rect class="cls-1" x="43.61" y="7.27" width="3.63" height="3.63"/><rect class="cls-1" x="47.24" y="7.27" width="3.63" height="3.63"/><rect class="cls-1" x="50.88" y="7.27" width="3.63" height="3.63"/><rect class="cls-1" x="65.42" y="7.27" width="3.63" height="3.63"/><rect class="cls-1" x="72.68" y="7.27" width="3.63" height="3.63"/><rect class="cls-1" x="76.32" y="7.27" width="3.63" height="3.63"/><rect class="cls-1" x="79.95" y="7.27" width="3.63" height="3.63"/><rect class="cls-1" x="87.22" y="7.27" width="3.63" height="3.63"/><rect class="cls-1" y="10.9" width="3.63" height="3.63"/><rect class="cls-1" x="7.27" y="10.9" width="3.63" height="3.63"/><rect class="cls-1" x="10.9" y="10.9" width="3.63" height="3.63"/><rect class="cls-1" x="14.54" y="10.9" width="3.63" height="3.63"/><rect class="cls-1" x="21.81" y="10.9" width="3.63" height="3.63"/><rect class="cls-1" x="43.61" y="10.9" width="3.63" height="3.63"/><rect class="cls-1" x="47.24" y="10.9" width="3.63" height="3.63"/><rect class="cls-1" x="54.51" y="10.9" width="3.63" height="3.63"/><rect class="cls-1" x="58.15" y="10.9" width="3.63" height="3.63"/><rect class="cls-1" x="65.42" y="10.9" width="3.63" height="3.63"/><rect class="cls-1" x="72.68" y="10.9" width="3.63" height="3.63"/><rect class="cls-1" x="76.32" y="10.9" width="3.63" height="3.63"/><rect class="cls-1" x="79.95" y="10.9" width="3.63" height="3.63"/><rect class="cls-1" x="87.22" y="10.9" width="3.63" height="3.63"/><rect class="cls-1" y="14.54" width="3.63" height="3.63"/><rect class="cls-1" x="7.27" y="14.54" width="3.63" height="3.63"/><rect class="cls-1" x="10.9" y="14.54" width="3.63" height="3.63"/><rect class="cls-1" x="14.54" y="14.54" width="3.63" height="3.63"/><rect class="cls-1" x="21.81" y="14.54" width="3.63" height="3.63"/><rect class="cls-1" x="32.71" y="14.54" width="3.63" height="3.63"/><rect class="cls-1" x="39.98" y="14.54" width="3.63" height="3.63"/><rect class="cls-1" x="50.88" y="14.54" width="3.63" height="3.63"/><rect class="cls-1" x="58.15" y="14.54" width="3.63" height="3.63"/><rect class="cls-1" x="65.42" y="14.54" width="3.63" height="3.63"/><rect class="cls-1" x="72.68" y="14.54" width="3.63" height="3.63"/><rect class="cls-1" x="76.32" y="14.54" width="3.63" height="3.63"/><rect class="cls-1" x="79.95" y="14.54" width="3.63" height="3.63"/><rect class="cls-1" x="87.22" y="14.54" width="3.63" height="3.63"/><rect class="cls-1" y="18.17" width="3.63" height="3.63"/><rect class="cls-1" x="21.81" y="18.17" width="3.63" height="3.63"/><rect class="cls-1" x="36.34" y="18.17" width="3.63" height="3.63"/><rect class="cls-1" x="43.61" y="18.17" width="3.63" height="3.63"/><rect class="cls-1" x="47.24" y="18.17" width="3.63" height="3.63"/><rect class="cls-1" x="65.42" y="18.17" width="3.63" height="3.63"/><rect class="cls-1" x="87.22" y="18.17" width="3.63" height="3.63"/><rect class="cls-1" y="21.81" width="3.63" height="3.63"/><rect class="cls-1" x="3.63" y="21.81" width="3.63" height="3.63"/><rect class="cls-1" x="7.27" y="21.81" width="3.63" height="3.63"/><rect class="cls-1" x="10.9" y="21.81" width="3.63" height="3.63"/><rect class="cls-1" x="14.54" y="21.81" width="3.63" height="3.63"/><rect class="cls-1" x="18.17" y="21.81" width="3.63" height="3.63"/><rect class="cls-1" x="21.81" y="21.81" width="3.63" height="3.63"/><rect class="cls-1" x="29.07" y="21.81" width="3.63" height="3.63"/><rect class="cls-1" x="36.34" y="21.81" width="3.63" height="3.63"/><rect class="cls-1" x="43.61" y="21.81" width="3.63" height="3.63"/><rect class="cls-1" x="50.88" y="21.81" width="3.63" height="3.63"/><rect class="cls-1" x="58.15" y="21.81" width="3.63" height="3.63"/><rect class="cls-1" x="65.42" y="21.81" width="3.63" height="3.63"/><rect class="cls-1" x="69.05" y="21.81" width="3.63" height="3.63"/><rect class="cls-1" x="72.68" y="21.81" width="3.63" height="3.63"/><rect class="cls-1" x="76.32" y="21.81" width="3.63" height="3.63"/><rect class="cls-1" x="79.95" y="21.81" width="3.63" height="3.63"/><rect class="cls-1" x="83.59" y="21.81" width="3.63" height="3.63"/><rect class="cls-1" x="87.22" y="21.81" width="3.63" height="3.63"/><rect class="cls-1" x="29.07" y="25.44" width="3.63" height="3.63"/><rect class="cls-1" x="36.34" y="25.44" width="3.63" height="3.63"/><rect class="cls-1" x="39.98" y="25.44" width="3.63" height="3.63"/><rect class="cls-1" x="47.24" y="25.44" width="3.63" height="3.63"/><rect class="cls-1" x="50.88" y="25.44" width="3.63" height="3.63"/><rect class="cls-1" x="54.51" y="25.44" width="3.63" height="3.63"/><rect class="cls-1" x="58.15" y="25.44" width="3.63" height="3.63"/><rect class="cls-1" y="29.07" width="3.63" height="3.63"/><rect class="cls-1" x="3.63" y="29.07" width="3.63" height="3.63"/><rect class="cls-1" x="10.9" y="29.07" width="3.63" height="3.63"/><rect class="cls-1" x="14.54" y="29.07" width="3.63" height="3.63"/><rect class="cls-1" x="21.81" y="29.07" width="3.63" height="3.63"/><rect class="cls-1" x="32.71" y="29.07" width="3.63" height="3.63"/><rect class="cls-1" x="36.34" y="29.07" width="3.63" height="3.63"/><rect class="cls-1" x="39.98" y="29.07" width="3.63" height="3.63"/><rect class="cls-1" x="43.61" y="29.07" width="3.63" height="3.63"/><rect class="cls-1" x="50.88" y="29.07" width="3.63" height="3.63"/><rect class="cls-1" x="58.15" y="29.07" width="3.63" height="3.63"/><rect class="cls-1" x="65.42" y="29.07" width="3.63" height="3.63"/><rect class="cls-1" x="87.22" y="29.07" width="3.63" height="3.63"/><rect class="cls-1" x="3.63" y="32.71" width="3.63" height="3.63"/><rect class="cls-1" x="18.17" y="32.71" width="3.63" height="3.63"/><rect class="cls-1" x="25.44" y="32.71" width="3.63" height="3.63"/><rect class="cls-1" x="32.71" y="32.71" width="3.63" height="3.63"/><rect class="cls-1" x="43.61" y="32.71" width="3.63" height="3.63"/><rect class="cls-1" x="50.88" y="32.71" width="3.63" height="3.63"/><rect class="cls-1" x="54.51" y="32.71" width="3.63" height="3.63"/><rect class="cls-1" x="61.78" y="32.71" width="3.63" height="3.63"/><rect class="cls-1" x="69.05" y="32.71" width="3.63" height="3.63"/><rect class="cls-1" x="72.68" y="32.71" width="3.63" height="3.63"/><rect class="cls-1" x="76.32" y="32.71" width="3.63" height="3.63"/><rect class="cls-1" x="79.95" y="32.71" width="3.63" height="3.63"/><rect class="cls-1" x="83.59" y="32.71" width="3.63" height="3.63"/><rect class="cls-1" y="36.34" width="3.63" height="3.63"/><rect class="cls-1" x="7.27" y="36.34" width="3.63" height="3.63"/><rect class="cls-1" x="10.9" y="36.34" width="3.63" height="3.63"/><rect class="cls-1" x="18.17" y="36.34" width="3.63" height="3.63"/><rect class="cls-1" x="21.81" y="36.34" width="3.63" height="3.63"/><rect class="cls-1" x="25.44" y="36.34" width="3.63" height="3.63"/><rect class="cls-1" x="36.34" y="36.34" width="3.63" height="3.63"/><rect class="cls-1" x="39.98" y="36.34" width="3.63" height="3.63"/><rect class="cls-1" x="54.51" y="36.34" width="3.63" height="3.63"/><rect class="cls-1" x="58.15" y="36.34" width="3.63" height="3.63"/><rect class="cls-1" x="65.42" y="36.34" width="3.63" height="3.63"/><rect class="cls-1" x="69.05" y="36.34" width="3.63" height="3.63"/><rect class="cls-1" x="76.32" y="36.34" width="3.63" height="3.63"/><rect class="cls-1" x="87.22" y="36.34" width="3.63" height="3.63"/><rect class="cls-1" y="39.98" width="3.63" height="3.63"/><rect class="cls-1" x="3.63" y="39.98" width="3.63" height="3.63"/><rect class="cls-1" x="14.54" y="39.98" width="3.63" height="3.63"/><rect class="cls-1" x="32.71" y="39.98" width="3.63" height="3.63"/><rect class="cls-1" x="36.34" y="39.98" width="3.63" height="3.63"/><rect class="cls-1" x="50.88" y="39.98" width="3.63" height="3.63"/><rect class="cls-1" x="54.51" y="39.98" width="3.63" height="3.63"/><rect class="cls-1" x="58.15" y="39.98" width="3.63" height="3.63"/><rect class="cls-1" x="69.05" y="39.98" width="3.63" height="3.63"/><rect class="cls-1" x="76.32" y="39.98" width="3.63" height="3.63"/><rect class="cls-1" x="79.95" y="39.98" width="3.63" height="3.63"/><rect class="cls-1" x="83.59" y="39.98" width="3.63" height="3.63"/><rect class="cls-1" x="87.22" y="39.98" width="3.63" height="3.63"/><rect class="cls-1" x="3.63" y="43.61" width="3.63" height="3.63"/><rect class="cls-1" x="18.17" y="43.61" width="3.63" height="3.63"/><rect class="cls-1" x="21.81" y="43.61" width="3.63" height="3.63"/><rect class="cls-1" x="29.07" y="43.61" width="3.63" height="3.63"/><rect class="cls-1" x="32.71" y="43.61" width="3.63" height="3.63"/><rect class="cls-1" x="43.61" y="43.61" width="3.63" height="3.63"/><rect class="cls-1" x="54.51" y="43.61" width="3.63" height="3.63"/><rect class="cls-1" x="65.42" y="43.61" width="3.63" height="3.63"/><rect class="cls-1" x="87.22" y="43.61" width="3.63" height="3.63"/><rect class="cls-1" x="3.63" y="47.24" width="3.63" height="3.63"/><rect class="cls-1" x="7.27" y="47.24" width="3.63" height="3.63"/><rect class="cls-1" x="10.9" y="47.24" width="3.63" height="3.63"/><rect class="cls-1" x="14.54" y="47.24" width="3.63" height="3.63"/><rect class="cls-1" x="18.17" y="47.24" width="3.63" height="3.63"/><rect class="cls-1" x="25.44" y="47.24" width="3.63" height="3.63"/><rect class="cls-1" x="29.07" y="47.24" width="3.63" height="3.63"/><rect class="cls-1" x="39.98" y="47.24" width="3.63" height="3.63"/><rect class="cls-1" x="43.61" y="47.24" width="3.63" height="3.63"/><rect class="cls-1" x="47.24" y="47.24" width="3.63" height="3.63"/><rect class="cls-1" x="50.88" y="47.24" width="3.63" height="3.63"/><rect class="cls-1" x="54.51" y="47.24" width="3.63" height="3.63"/><rect class="cls-1" x="58.15" y="47.24" width="3.63" height="3.63"/><rect class="cls-1" x="61.78" y="47.24" width="3.63" height="3.63"/><rect class="cls-1" x="72.68" y="47.24" width="3.63" height="3.63"/><rect class="cls-1" x="83.59" y="47.24" width="3.63" height="3.63"/><rect class="cls-1" x="7.27" y="50.88" width="3.63" height="3.63"/><rect class="cls-1" x="14.54" y="50.88" width="3.63" height="3.63"/><rect class="cls-1" x="21.81" y="50.88" width="3.63" height="3.63"/><rect class="cls-1" x="29.07" y="50.88" width="3.63" height="3.63"/><rect class="cls-1" x="32.71" y="50.88" width="3.63" height="3.63"/><rect class="cls-1" x="36.34" y="50.88" width="3.63" height="3.63"/><rect class="cls-1" x="47.24" y="50.88" width="3.63" height="3.63"/><rect class="cls-1" x="50.88" y="50.88" width="3.63" height="3.63"/><rect class="cls-1" x="54.51" y="50.88" width="3.63" height="3.63"/><rect class="cls-1" x="61.78" y="50.88" width="3.63" height="3.63"/><rect class="cls-1" x="65.42" y="50.88" width="3.63" height="3.63"/><rect class="cls-1" x="72.68" y="50.88" width="3.63" height="3.63"/><rect class="cls-1" x="76.32" y="50.88" width="3.63" height="3.63"/><rect class="cls-1" x="79.95" y="50.88" width="3.63" height="3.63"/><rect class="cls-1" x="83.59" y="50.88" width="3.63" height="3.63"/><rect class="cls-1" x="87.22" y="50.88" width="3.63" height="3.63"/><rect class="cls-1" x="3.63" y="54.51" width="3.63" height="3.63"/><rect class="cls-1" x="7.27" y="54.51" width="3.63" height="3.63"/><rect class="cls-1" x="10.9" y="54.51" width="3.63" height="3.63"/><rect class="cls-1" x="25.44" y="54.51" width="3.63" height="3.63"/><rect class="cls-1" x="29.07" y="54.51" width="3.63" height="3.63"/><rect class="cls-1" x="32.71" y="54.51" width="3.63" height="3.63"/><rect class="cls-1" x="54.51" y="54.51" width="3.63" height="3.63"/><rect class="cls-1" x="61.78" y="54.51" width="3.63" height="3.63"/><rect class="cls-1" x="69.05" y="54.51" width="3.63" height="3.63"/><rect class="cls-1" x="76.32" y="54.51" width="3.63" height="3.63"/><rect class="cls-1" x="79.95" y="54.51" width="3.63" height="3.63"/><rect class="cls-1" x="87.22" y="54.51" width="3.63" height="3.63"/><rect class="cls-1" x="3.63" y="58.15" width="3.63" height="3.63"/><rect class="cls-1" x="10.9" y="58.15" width="3.63" height="3.63"/><rect class="cls-1" x="18.17" y="58.15" width="3.63" height="3.63"/><rect class="cls-1" x="21.81" y="58.15" width="3.63" height="3.63"/><rect class="cls-1" x="25.44" y="58.15" width="3.63" height="3.63"/><rect class="cls-1" x="32.71" y="58.15" width="3.63" height="3.63"/><rect class="cls-1" x="36.34" y="58.15" width="3.63" height="3.63"/><rect class="cls-1" x="43.61" y="58.15" width="3.63" height="3.63"/><rect class="cls-1" x="47.24" y="58.15" width="3.63" height="3.63"/><rect class="cls-1" x="54.51" y="58.15" width="3.63" height="3.63"/><rect class="cls-1" x="58.15" y="58.15" width="3.63" height="3.63"/><rect class="cls-1" x="61.78" y="58.15" width="3.63" height="3.63"/><rect class="cls-1" x="65.42" y="58.15" width="3.63" height="3.63"/><rect class="cls-1" x="69.05" y="58.15" width="3.63" height="3.63"/><rect class="cls-1" x="72.68" y="58.15" width="3.63" height="3.63"/><rect class="cls-1" x="79.95" y="58.15" width="3.63" height="3.63"/><rect class="cls-1" x="83.59" y="58.15" width="3.63" height="3.63"/><rect class="cls-1" x="29.07" y="61.78" width="3.63" height="3.63"/><rect class="cls-1" x="32.71" y="61.78" width="3.63" height="3.63"/><rect class="cls-1" x="36.34" y="61.78" width="3.63" height="3.63"/><rect class="cls-1" x="50.88" y="61.78" width="3.63" height="3.63"/><rect class="cls-1" x="54.51" y="61.78" width="3.63" height="3.63"/><rect class="cls-1" x="58.15" y="61.78" width="3.63" height="3.63"/><rect class="cls-1" x="72.68" y="61.78" width="3.63" height="3.63"/><rect class="cls-1" x="79.95" y="61.78" width="3.63" height="3.63"/><rect class="cls-1" x="83.59" y="61.78" width="3.63" height="3.63"/><rect class="cls-1" y="65.42" width="3.63" height="3.63"/><rect class="cls-1" x="3.63" y="65.42" width="3.63" height="3.63"/><rect class="cls-1" x="7.27" y="65.42" width="3.63" height="3.63"/><rect class="cls-1" x="10.9" y="65.42" width="3.63" height="3.63"/><rect class="cls-1" x="14.54" y="65.42" width="3.63" height="3.63"/><rect class="cls-1" x="18.17" y="65.42" width="3.63" height="3.63"/><rect class="cls-1" x="21.81" y="65.42" width="3.63" height="3.63"/><rect class="cls-1" x="36.34" y="65.42" width="3.63" height="3.63"/><rect class="cls-1" x="39.98" y="65.42" width="3.63" height="3.63"/><rect class="cls-1" x="50.88" y="65.42" width="3.63" height="3.63"/><rect class="cls-1" x="58.15" y="65.42" width="3.63" height="3.63"/><rect class="cls-1" x="65.42" y="65.42" width="3.63" height="3.63"/><rect class="cls-1" x="72.68" y="65.42" width="3.63" height="3.63"/><rect class="cls-1" x="87.22" y="65.42" width="3.63" height="3.63"/><rect class="cls-1" y="69.05" width="3.63" height="3.63"/><rect class="cls-1" x="21.81" y="69.05" width="3.63" height="3.63"/><rect class="cls-1" x="39.98" y="69.05" width="3.63" height="3.63"/><rect class="cls-1" x="47.24" y="69.05" width="3.63" height="3.63"/><rect class="cls-1" x="50.88" y="69.05" width="3.63" height="3.63"/><rect class="cls-1" x="54.51" y="69.05" width="3.63" height="3.63"/><rect class="cls-1" x="58.15" y="69.05" width="3.63" height="3.63"/><rect class="cls-1" x="72.68" y="69.05" width="3.63" height="3.63"/><rect class="cls-1" x="83.59" y="69.05" width="3.63" height="3.63"/><rect class="cls-1" y="72.68" width="3.63" height="3.63"/><rect class="cls-1" x="7.27" y="72.68" width="3.63" height="3.63"/><rect class="cls-1" x="10.9" y="72.68" width="3.63" height="3.63"/><rect class="cls-1" x="14.54" y="72.68" width="3.63" height="3.63"/><rect class="cls-1" x="21.81" y="72.68" width="3.63" height="3.63"/><rect class="cls-1" x="29.07" y="72.68" width="3.63" height="3.63"/><rect class="cls-1" x="39.98" y="72.68" width="3.63" height="3.63"/><rect class="cls-1" x="43.61" y="72.68" width="3.63" height="3.63"/><rect class="cls-1" x="54.51" y="72.68" width="3.63" height="3.63"/><rect class="cls-1" x="58.15" y="72.68" width="3.63" height="3.63"/><rect class="cls-1" x="61.78" y="72.68" width="3.63" height="3.63"/><rect class="cls-1" x="65.42" y="72.68" width="3.63" height="3.63"/><rect class="cls-1" x="69.05" y="72.68" width="3.63" height="3.63"/><rect class="cls-1" x="72.68" y="72.68" width="3.63" height="3.63"/><rect class="cls-1" y="76.32" width="3.63" height="3.63"/><rect class="cls-1" x="7.27" y="76.32" width="3.63" height="3.63"/><rect class="cls-1" x="10.9" y="76.32" width="3.63" height="3.63"/><rect class="cls-1" x="14.54" y="76.32" width="3.63" height="3.63"/><rect class="cls-1" x="21.81" y="76.32" width="3.63" height="3.63"/><rect class="cls-1" x="29.07" y="76.32" width="3.63" height="3.63"/><rect class="cls-1" x="32.71" y="76.32" width="3.63" height="3.63"/><rect class="cls-1" x="36.34" y="76.32" width="3.63" height="3.63"/><rect class="cls-1" x="39.98" y="76.32" width="3.63" height="3.63"/><rect class="cls-1" x="47.24" y="76.32" width="3.63" height="3.63"/><rect class="cls-1" x="50.88" y="76.32" width="3.63" height="3.63"/><rect class="cls-1" x="58.15" y="76.32" width="3.63" height="3.63"/><rect class="cls-1" x="65.42" y="76.32" width="3.63" height="3.63"/><rect class="cls-1" x="83.59" y="76.32" width="3.63" height="3.63"/><rect class="cls-1" x="87.22" y="76.32" width="3.63" height="3.63"/><rect class="cls-1" y="79.95" width="3.63" height="3.63"/><rect class="cls-1" x="7.27" y="79.95" width="3.63" height="3.63"/><rect class="cls-1" x="10.9" y="79.95" width="3.63" height="3.63"/><rect class="cls-1" x="14.54" y="79.95" width="3.63" height="3.63"/><rect class="cls-1" x="21.81" y="79.95" width="3.63" height="3.63"/><rect class="cls-1" x="39.98" y="79.95" width="3.63" height="3.63"/><rect class="cls-1" x="47.24" y="79.95" width="3.63" height="3.63"/><rect class="cls-1" x="61.78" y="79.95" width="3.63" height="3.63"/><rect class="cls-1" x="72.68" y="79.95" width="3.63" height="3.63"/><rect class="cls-1" x="76.32" y="79.95" width="3.63" height="3.63"/><rect class="cls-1" x="79.95" y="79.95" width="3.63" height="3.63"/><rect class="cls-1" x="83.59" y="79.95" width="3.63" height="3.63"/><rect class="cls-1" x="87.22" y="79.95" width="3.63" height="3.63"/><rect class="cls-1" y="83.59" width="3.63" height="3.63"/><rect class="cls-1" x="21.81" y="83.59" width="3.63" height="3.63"/><rect class="cls-1" x="29.07" y="83.59" width="3.63" height="3.63"/><rect class="cls-1" x="43.61" y="83.59" width="3.63" height="3.63"/><rect class="cls-1" x="54.51" y="83.59" width="3.63" height="3.63"/><rect class="cls-1" x="69.05" y="83.59" width="3.63" height="3.63"/><rect class="cls-1" x="72.68" y="83.59" width="3.63" height="3.63"/><rect class="cls-1" x="79.95" y="83.59" width="3.63" height="3.63"/><rect class="cls-1" x="83.59" y="83.59" width="3.63" height="3.63"/><rect class="cls-1" x="87.22" y="83.59" width="3.63" height="3.63"/><rect class="cls-1" y="87.22" width="3.63" height="3.63"/><rect class="cls-1" x="3.63" y="87.22" width="3.63" height="3.63"/><rect class="cls-1" x="7.27" y="87.22" width="3.63" height="3.63"/><rect class="cls-1" x="10.9" y="87.22" width="3.63" height="3.63"/><rect class="cls-1" x="14.54" y="87.22" width="3.63" height="3.63"/><rect class="cls-1" x="18.17" y="87.22" width="3.63" height="3.63"/><rect class="cls-1" x="21.81" y="87.22" width="3.63" height="3.63"/><rect class="cls-1" x="29.07" y="87.22" width="3.63" height="3.63"/><rect class="cls-1" x="32.71" y="87.22" width="3.63" height="3.63"/><rect class="cls-1" x="36.34" y="87.22" width="3.63" height="3.63"/><rect class="cls-1" x="39.98" y="87.22" width="3.63" height="3.63"/><rect class="cls-1" x="43.61" y="87.22" width="3.63" height="3.63"/><rect class="cls-1" x="58.15" y="87.22" width="3.63" height="3.63"/><rect class="cls-1" x="61.78" y="87.22" width="3.63" height="3.63"/><rect class="cls-1" x="76.32" y="87.22" width="3.63" height="3.63"/><rect class="cls-1" x="87.22" y="87.22" width="3.63" height="3.63"/></g></svg>