<svg id="圖層_1" data-name="圖層 1" xmlns="http://www.w3.org/2000/svg" viewBox="0 0 90.86 90.86"><defs><style>.cls-1{fill:#040000}</style></defs><g id="quickmark"><path class="cls-1" d="M0 0h3.63v3.63H0zm3.63 0h3.63v3.63H3.63zm3.64 0h3.63v3.63H7.27zm3.63 0h3.63v3.63H10.9zm3.64 0h3.63v3.63h-3.63zm3.63 0h3.63v3.63h-3.63zm3.64 0h3.63v3.63h-3.63zm7.26 0h3.63v3.63h-3.63zm10.91 0h3.63v3.63h-3.63zm3.63 0h3.63v3.63h-3.63zm3.63 0h3.63v3.63h-3.63zm3.64 0h3.63v3.63h-3.63zm14.54 0h3.63v3.63h-3.63zm3.63 0h3.63v3.63h-3.63zm3.63 0h3.63v3.63h-3.63zm3.64 0h3.63v3.63h-3.63zm3.63 0h3.63v3.63h-3.63zm3.64 0h3.63v3.63h-3.63zm3.63 0h3.63v3.63h-3.63zM0 3.63h3.63v3.63H0zm21.81 0h3.63v3.63h-3.63zm10.9 0h3.63v3.63h-3.63zm3.63 0h3.63v3.63h-3.63zm29.08 0h3.63v3.63h-3.63zm21.8 0h3.63v3.63h-3.63zM0 7.27h3.63v3.63H0zm7.27 0h3.63v3.63H7.27zm3.63 0h3.63v3.63H10.9zm3.64 0h3.63v3.63h-3.63zm7.27 0h3.63v3.63h-3.63zm14.53 0h3.63v3.63h-3.63zm7.27 0h3.63v3.63h-3.63zm3.63 0h3.63v3.63h-3.63zm3.64 0h3.63v3.63h-3.63zm14.54 0h3.63v3.63h-3.63zm7.26 0h3.63v3.63h-3.63zm3.64 0h3.63v3.63h-3.63zm3.63 0h3.63v3.63h-3.63zm7.27 0h3.63v3.63h-3.63zM0 10.9h3.63v3.63H0zm7.27 0h3.63v3.63H7.27zm3.63 0h3.63v3.63H10.9zm3.64 0h3.63v3.63h-3.63zm7.27 0h3.63v3.63h-3.63zm21.8 0h3.63v3.63h-3.63zm3.63 0h3.63v3.63h-3.63zm7.27 0h3.63v3.63h-3.63zm3.64 0h3.63v3.63h-3.63zm7.27 0h3.63v3.63h-3.63zm7.26 0h3.63v3.63h-3.63zm3.64 0h3.63v3.63h-3.63zm3.63 0h3.63v3.63h-3.63zm7.27 0h3.63v3.63h-3.63zM0 14.54h3.63v3.63H0zm7.27 0h3.63v3.63H7.27zm3.63 0h3.63v3.63H10.9zm3.64 0h3.63v3.63h-3.63zm7.27 0h3.63v3.63h-3.63zm10.9 0h3.63v3.63h-3.63zm7.27 0h3.63v3.63h-3.63zm10.9 0h3.63v3.63h-3.63zm7.27 0h3.63v3.63h-3.63zm7.27 0h3.63v3.63h-3.63zm7.26 0h3.63v3.63h-3.63zm3.64 0h3.63v3.63h-3.63zm3.63 0h3.63v3.63h-3.63zm7.27 0h3.63v3.63h-3.63zM0 18.17h3.63v3.63H0zm21.81 0h3.63v3.63h-3.63zm14.53 0h3.63v3.63h-3.63zm7.27 0h3.63v3.63h-3.63zm3.63 0h3.63v3.63h-3.63zm18.18 0h3.63v3.63h-3.63zm21.8 0h3.63v3.63h-3.63zM0 21.81h3.63v3.63H0zm3.63 0h3.63v3.63H3.63zm3.64 0h3.63v3.63H7.27zm3.63 0h3.63v3.63H10.9zm3.64 0h3.63v3.63h-3.63zm3.63 0h3.63v3.63h-3.63zm3.64 0h3.63v3.63h-3.63zm7.26 0h3.63v3.63h-3.63zm7.27 0h3.63v3.63h-3.63zm7.27 0h3.63v3.63h-3.63zm7.27 0h3.63v3.63h-3.63zm7.27 0h3.63v3.63h-3.63zm7.27 0h3.63v3.63h-3.63zm3.63 0h3.63v3.63h-3.63zm3.63 0h3.63v3.63h-3.63zm3.64 0h3.63v3.63h-3.63zm3.63 0h3.63v3.63h-3.63zm3.64 0h3.63v3.63h-3.63zm3.63 0h3.63v3.63h-3.63zm-58.15 3.63h3.63v3.63h-3.63zm7.27 0h3.63v3.63h-3.63zm3.64 0h3.63v3.63h-3.63zm7.26 0h3.63v3.63h-3.63zm3.64 0h3.63v3.63h-3.63zm3.63 0h3.63v3.63h-3.63zm3.64 0h3.63v3.63h-3.63zM0 29.07h3.63v3.63H0zm3.63 0h3.63v3.63H3.63zm7.27 0h3.63v3.63H10.9zm3.64 0h3.63v3.63h-3.63zm7.27 0h3.63v3.63h-3.63zm10.9 0h3.63v3.63h-3.63zm3.63 0h3.63v3.63h-3.63zm3.64 0h3.63v3.63h-3.63zm3.63 0h3.63v3.63h-3.63zm7.27 0h3.63v3.63h-3.63zm7.27 0h3.63v3.63h-3.63zm7.27 0h3.63v3.63h-3.63zm21.8 0h3.63v3.63h-3.63zM3.63 32.71h3.63v3.63H3.63zm14.54 0h3.63v3.63h-3.63zm7.27 0h3.63v3.63h-3.63zm7.27 0h3.63v3.63h-3.63zm10.9 0h3.63v3.63h-3.63zm7.27 0h3.63v3.63h-3.63zm3.63 0h3.63v3.63h-3.63zm7.27 0h3.63v3.63h-3.63zm7.27 0h3.63v3.63h-3.63zm3.63 0h3.63v3.63h-3.63zm3.64 0h3.63v3.63h-3.63zm3.63 0h3.63v3.63h-3.63zm3.64 0h3.63v3.63h-3.63zM0 36.34h3.63v3.63H0zm7.27 0h3.63v3.63H7.27zm3.63 0h3.63v3.63H10.9zm7.27 0h3.63v3.63h-3.63zm3.64 0h3.63v3.63h-3.63zm3.63 0h3.63v3.63h-3.63zm10.9 0h3.63v3.63h-3.63zm3.64 0h3.63v3.63h-3.63zm14.53 0h3.63v3.63h-3.63zm3.64 0h3.63v3.63h-3.63zm7.27 0h3.63v3.63h-3.63zm3.63 0h3.63v3.63h-3.63zm7.27 0h3.63v3.63h-3.63zm10.9 0h3.63v3.63h-3.63zM0 39.98h3.63v3.63H0zm3.63 0h3.63v3.63H3.63zm10.91 0h3.63v3.63h-3.63zm18.17 0h3.63v3.63h-3.63zm3.63 0h3.63v3.63h-3.63zm14.54 0h3.63v3.63h-3.63z"/><path class="cls-1" d="M54.51 39.98h3.63v3.63h-3.63zm3.64 0h3.63v3.63h-3.63zm10.9 0h3.63v3.63h-3.63zm7.27 0h3.63v3.63h-3.63zm3.63 0h3.63v3.63h-3.63zm3.64 0h3.63v3.63h-3.63zm3.63 0h3.63v3.63h-3.63zM3.63 43.61h3.63v3.63H3.63zm14.54 0h3.63v3.63h-3.63zm3.64 0h3.63v3.63h-3.63zm7.26 0h3.63v3.63h-3.63zm3.64 0h3.63v3.63h-3.63zm10.9 0h3.63v3.63h-3.63zm10.9 0h3.63v3.63h-3.63zm10.91 0h3.63v3.63h-3.63zm21.8 0h3.63v3.63h-3.63zM3.63 47.24h3.63v3.63H3.63zm3.64 0h3.63v3.63H7.27zm3.63 0h3.63v3.63H10.9zm3.64 0h3.63v3.63h-3.63zm3.63 0h3.63v3.63h-3.63zm7.27 0h3.63v3.63h-3.63zm3.63 0h3.63v3.63h-3.63zm10.91 0h3.63v3.63h-3.63zm3.63 0h3.63v3.63h-3.63zm3.63 0h3.63v3.63h-3.63zm3.64 0h3.63v3.63h-3.63z"/><path class="cls-1" d="M54.51 47.24h3.63v3.63h-3.63zm3.64 0h3.63v3.63h-3.63z"/><path class="cls-1" d="M61.78 47.24h3.63v3.63h-3.63zm10.9 0h3.63v3.63h-3.63zm10.91 0h3.63v3.63h-3.63zM7.27 50.88h3.63v3.63H7.27zm7.27 0h3.63v3.63h-3.63zm7.27 0h3.63v3.63h-3.63zm7.26 0h3.63v3.63h-3.63zm3.64 0h3.63v3.63h-3.63zm3.63 0h3.63v3.63h-3.63zm10.9 0h3.63v3.63h-3.63zm3.64 0h3.63v3.63h-3.63z"/><path class="cls-1" d="M54.51 50.88h3.63v3.63h-3.63zm7.27 0h3.63v3.63h-3.63zm3.64 0h3.63v3.63h-3.63zm7.26 0h3.63v3.63h-3.63zm3.64 0h3.63v3.63h-3.63zm3.63 0h3.63v3.63h-3.63zm3.64 0h3.63v3.63h-3.63zm3.63 0h3.63v3.63h-3.63zM3.63 54.51h3.63v3.63H3.63zm3.64 0h3.63v3.63H7.27zm3.63 0h3.63v3.63H10.9zm14.54 0h3.63v3.63h-3.63zm3.63 0h3.63v3.63h-3.63zm3.64 0h3.63v3.63h-3.63z"/><path class="cls-1" d="M54.51 54.51h3.63v3.63h-3.63zm7.27 0h3.63v3.63h-3.63zm7.27 0h3.63v3.63h-3.63zm7.27 0h3.63v3.63h-3.63zm3.63 0h3.63v3.63h-3.63zm7.27 0h3.63v3.63h-3.63zM3.63 58.15h3.63v3.63H3.63zm7.27 0h3.63v3.63H10.9zm7.27 0h3.63v3.63h-3.63zm3.64 0h3.63v3.63h-3.63zm3.63 0h3.63v3.63h-3.63zm7.27 0h3.63v3.63h-3.63zm3.63 0h3.63v3.63h-3.63zm7.27 0h3.63v3.63h-3.63zm3.63 0h3.63v3.63h-3.63zm7.27 0h3.63v3.63h-3.63zm3.64 0h3.63v3.63h-3.63z"/><path class="cls-1" d="M61.78 58.15h3.63v3.63h-3.63zm3.64 0h3.63v3.63h-3.63zm3.63 0h3.63v3.63h-3.63zm3.63 0h3.63v3.63h-3.63zm7.27 0h3.63v3.63h-3.63zm3.64 0h3.63v3.63h-3.63zm-54.52 3.63h3.63v3.63h-3.63zm3.64 0h3.63v3.63h-3.63zm3.63 0h3.63v3.63h-3.63zm14.54 0h3.63v3.63h-3.63zm3.63 0h3.63v3.63h-3.63zm3.64 0h3.63v3.63h-3.63zm14.53 0h3.63v3.63h-3.63zm7.27 0h3.63v3.63h-3.63zm3.64 0h3.63v3.63h-3.63zM0 65.42h3.63v3.63H0zm3.63 0h3.63v3.63H3.63zm3.64 0h3.63v3.63H7.27zm3.63 0h3.63v3.63H10.9zm3.64 0h3.63v3.63h-3.63zm3.63 0h3.63v3.63h-3.63zm3.64 0h3.63v3.63h-3.63zm14.53 0h3.63v3.63h-3.63zm3.64 0h3.63v3.63h-3.63zm10.9 0h3.63v3.63h-3.63zm7.27 0h3.63v3.63h-3.63zm7.27 0h3.63v3.63h-3.63zm7.26 0h3.63v3.63h-3.63zm14.54 0h3.63v3.63h-3.63zM0 69.05h3.63v3.63H0zm21.81 0h3.63v3.63h-3.63zm18.17 0h3.63v3.63h-3.63zm7.26 0h3.63v3.63h-3.63zm3.64 0h3.63v3.63h-3.63z"/><path class="cls-1" d="M54.51 69.05h3.63v3.63h-3.63zm3.64 0h3.63v3.63h-3.63zm14.53 0h3.63v3.63h-3.63zm10.91 0h3.63v3.63h-3.63zM0 72.68h3.63v3.63H0zm7.27 0h3.63v3.63H7.27zm3.63 0h3.63v3.63H10.9zm3.64 0h3.63v3.63h-3.63zm7.27 0h3.63v3.63h-3.63zm7.26 0h3.63v3.63h-3.63zm10.91 0h3.63v3.63h-3.63zm3.63 0h3.63v3.63h-3.63zm10.9 0h3.63v3.63h-3.63zm3.64 0h3.63v3.63h-3.63z"/><path class="cls-1" d="M61.78 72.68h3.63v3.63h-3.63zm3.64 0h3.63v3.63h-3.63zm3.63 0h3.63v3.63h-3.63zm3.63 0h3.63v3.63h-3.63zM0 76.32h3.63v3.63H0zm7.27 0h3.63v3.63H7.27zm3.63 0h3.63v3.63H10.9zm3.64 0h3.63v3.63h-3.63zm7.27 0h3.63v3.63h-3.63zm7.26 0h3.63v3.63h-3.63zm3.64 0h3.63v3.63h-3.63zm3.63 0h3.63v3.63h-3.63zm3.64 0h3.63v3.63h-3.63zm7.26 0h3.63v3.63h-3.63zm3.64 0h3.63v3.63h-3.63zm7.27 0h3.63v3.63h-3.63zm7.27 0h3.63v3.63h-3.63zm18.17 0h3.63v3.63h-3.63zm3.63 0h3.63v3.63h-3.63zM0 79.95h3.63v3.63H0zm7.27 0h3.63v3.63H7.27zm3.63 0h3.63v3.63H10.9zm3.64 0h3.63v3.63h-3.63zm7.27 0h3.63v3.63h-3.63zm18.17 0h3.63v3.63h-3.63zm7.26 0h3.63v3.63h-3.63zm14.54 0h3.63v3.63h-3.63zm10.9 0h3.63v3.63h-3.63zm3.64 0h3.63v3.63h-3.63zm3.63 0h3.63v3.63h-3.63zm3.64 0h3.63v3.63h-3.63zm3.63 0h3.63v3.63h-3.63zM0 83.59h3.63v3.63H0zm21.81 0h3.63v3.63h-3.63zm7.26 0h3.63v3.63h-3.63zm14.54 0h3.63v3.63h-3.63zm10.9 0h3.63v3.63h-3.63zm14.54 0h3.63v3.63h-3.63zm3.63 0h3.63v3.63h-3.63zm7.27 0h3.63v3.63h-3.63zm3.64 0h3.63v3.63h-3.63zm3.63 0h3.63v3.63h-3.63zM0 87.22h3.63v3.63H0zm3.63 0h3.63v3.63H3.63zm3.64 0h3.63v3.63H7.27zm3.63 0h3.63v3.63H10.9zm3.64 0h3.63v3.63h-3.63zm3.63 0h3.63v3.63h-3.63zm3.64 0h3.63v3.63h-3.63zm7.26 0h3.63v3.63h-3.63zm3.64 0h3.63v3.63h-3.63zm3.63 0h3.63v3.63h-3.63zm3.64 0h3.63v3.63h-3.63zm3.63 0h3.63v3.63h-3.63zm14.54 0h3.63v3.63h-3.63z"/><path class="cls-1" d="M61.78 87.22h3.63v3.63h-3.63zm14.54 0h3.63v3.63h-3.63zm10.9 0h3.63v3.63h-3.63z"/></g></svg>