<?xml version="1.0" encoding="utf-8"?>
<!-- Generator: Adobe Illustrator 22.1.0, SVG Export Plug-In . SVG Version: 6.00 Build 0)  -->
<svg version="1.1" id="圖層_1" xmlns="http://www.w3.org/2000/svg" xmlns:xlink="http://www.w3.org/1999/xlink" x="0px" y="0px"
	 viewBox="0 0 109.5 48.2" style="enable-background:new 0 0 109.5 48.2;" xml:space="preserve">
<style type="text/css">
	.st0{fill:#7A5A26;}
</style>
<g>
	<g>
		<path class="st0" d="M11.7,36.5L8.3,48.1h1l0.7-2.6h3.5l0.7,2.6h3.5l-3.2-11.6H11.7z M10.4,44.5l1.5-5.2l1.4,5.2H10.4z M36,36.5
			l-1.8,7l-1.7-7h-2l-1.7,7l-1.7-7h-3.5l3,11.6h2.1l1.6-6.1h0l1.5,6.1h2.4l2.8-11.6H36z M39.6,36.5l-3.4,11.6h1l0.7-2.6h3.5l0.7,2.6
			h3.5l-3.2-11.6H39.6z M38.2,44.5l1.5-5.2l1.4,5.2H38.2z M9.3,36.5H0.1v0.9h2.8v10.6h3.5V37.5h2.8V36.5z M98.3,42.1
			c1.2-0.5,1.9-1.3,1.9-2.5c0-1.8-1.1-3-2.4-3H91v11.6h3.5v-5.6h0.4c0.5,0,0.6,0,0.6,0l2.9,5.6l3.2,0l-3.2-5.9L98.3,42.1z M95,41.6
			h-0.5v-4H95c1.3,0,1.9,0.7,1.9,2C96.9,40.9,96.3,41.6,95,41.6z M18.9,48.1h3.3V36.5h-3.3V48.1z M76.1,42.2h3.3v-0.9h-3.3v-3.7h3.9
			v-1h-7.5v11.6h8.2v-1h-4.6V42.2z M85.4,42.2h3.3v-0.9h-3.3v-3.7h3.9v-1h-7.5v11.6H90v-1h-4.6V42.2z M68.4,41.9
			c1.6-0.4,2.4-1.2,2.4-2.6c0-1.7-1.1-2.8-2.3-2.8h-6.8v11.6h6.6c1.7,0,3-1.1,3-3.1C71.2,43.3,70.3,42.3,68.4,41.9z M65.2,37.5H66
			c1,0,1.5,0.6,1.5,1.9c0,1.4-0.5,2.1-1.4,2.1h-0.8V37.5z M66,47.1h-0.7v-4.6h0.7c1.3,0,1.9,0.8,1.9,2.4
			C67.9,46.4,67.2,47.1,66,47.1z M54,44.2l-5.1-7.7h-2.1v11.6h0.9V41l4.7,7.2h2.5V36.5H54V44.2z"/>
		<g>
			<g>
				<path class="st0" d="M104.5,7.8v-4h1.8c0.4,0,0.6,0,0.8,0.1c0.2,0.1,0.3,0.2,0.4,0.4c0.1,0.2,0.2,0.4,0.2,0.6
					c0,0.3-0.1,0.5-0.3,0.7c-0.2,0.2-0.5,0.3-0.8,0.4c0.1,0.1,0.2,0.1,0.3,0.2c0.2,0.1,0.3,0.3,0.4,0.5l0.7,1.1h-0.7L106.8,7
					c-0.2-0.2-0.3-0.4-0.4-0.5c-0.1-0.1-0.2-0.2-0.3-0.3c-0.1-0.1-0.2-0.1-0.2-0.1c-0.1,0-0.2,0-0.3,0H105v1.8H104.5z M105,5.6h1.1
					c0.2,0,0.4,0,0.6-0.1c0.1,0,0.2-0.1,0.3-0.2c0.1-0.1,0.1-0.2,0.1-0.4c0-0.2-0.1-0.3-0.2-0.5c-0.1-0.1-0.3-0.2-0.6-0.2H105V5.6z"
					/>
				<path class="st0" d="M102.8,5.8c0,1.8,1.5,3.3,3.3,3.3c1.8,0,3.3-1.5,3.3-3.3c0-1.8-1.5-3.3-3.3-3.3
					C104.3,2.5,102.8,4,102.8,5.8z M103.2,5.8c0-1.6,1.3-2.9,2.9-2.9c1.6,0,2.9,1.3,2.9,2.9c0,1.6-1.3,2.9-2.9,2.9
					C104.5,8.7,103.2,7.4,103.2,5.8z"/>
			</g>
			<g>
				<g>
					<path class="st0" d="M55.1,0.9v33h4.5v-33H55.1z M58.4,28h-2V5.2h2V28z"/>
					<path class="st0" d="M73.9,22.8V2.6l-2.2,0l1.2-2.1h-3c-0.2,0.3-1.5,1.7-1.9,2.1h-6.1v20.2l4,0.1c0,0-3,3-3.6,3.5v5.3l5.5,0.1
						v2.5H71l0.1-2.6h2.4v-5.3l-2.8,0v-1.5h-2.6v1.8c0,0-2.4,0.1-3.4,0c0.1,0,3.9-3.6,4.3-3.9H73.9z M66.4,18h-2.6V15h2.6V18z
						 M66.4,10.4h-2.8V7.5h2.8V10.4z M68.8,7.5h2.9v2.9h-2.9V7.5z M68.8,15h2.9V18h-2.9V15z"/>
				</g>
				<g>
					<path class="st0" d="M13.3,1.3c-0.2-0.1-6.7,9.3-6.8,9.6c0,0,8.4,0,10.3,0c-0.3-0.4-4.4-5.4-4.4-5.4c0.6-0.4,1.2-0.9,1.9-1.3
						c0.6,0.6,5.8,6.8,6,6.9c0.1,1.8,0.2,3.2,0.2,4.9H2v-5c0.3-0.3,8.4-10.7,8.4-10.9C11,0.3,13.3,1.3,13.3,1.3z"/>
					<path class="st0" d="M1.7,19.5v13.8H21V19.5H1.7z M17.9,28H4.8v-3.4h13.1V28z"/>
				</g>
				<g>
					<path class="st0" d="M46.3,19.9v-8.7l-4.3-0.1V11l0.1-4.7h3.9V1.8l-4.6-0.1V0.5h-2.4l-0.1,1.3h-5.1v4.4l4,0.1v0.1l-0.1,4.8
						h-3.6v2.9l10.1,0c0,1,0.1,2.3,0,3.1H34.1v8.2l10.4,0c0,0.8,0,1.7,0,2.4h-10v1.9l5.5,0.1c0,0,1.8,1.9-1.5,4.6
						c1.3,0,2.6,0.1,3.6-0.1c3.8-0.8,4.3-4.1,4.3-4.1v-8L35.8,22l0.1-2.2H46.3z M40.8,11.1h-1.7V6.3h1.7V11.1z"/>
					<polygon class="st0" points="26.3,1.3 29.7,7 30.8,6.7 27.4,1 					"/>
					<polygon class="st0" points="26.4,8.2 30.5,15 31.6,14.7 27.5,7.8 					"/>
					<polygon class="st0" points="27.8,34.3 29,34.4 31.4,17.6 30.2,17.6 					"/>
					<polygon class="st0" points="32.4,10.1 33.4,10.6 36.4,7.6 35.4,7.1 					"/>
					<polygon class="st0" points="43.2,8.1 47.2,10.9 48,10.4 44.1,7.6 					"/>
				</g>
				<g>
					<path class="st0" d="M94.8,6.8c0-0.9,0-1.9,0-2.8h4.4V0.5H86.3l0,3.6c1.2,0,2.5,0,3.6,0c0,0.9,0,2,0,2.8h-3.6v26.9h13.1V6.8
						L94.8,6.8z M91.6,4.2h1.7v2.7h-1.7V4.2z M87.6,10.7h2.3v4.4h-2.3V10.7z M97.6,28h-10v-1.8h10V28z M97.6,22h-9.7v-2.5h3.6
						l0.1-8.8h2v8.7l4,0.1V22z M97.6,15.1h-2.2v-4.4h2.2V15.1z"/>
					<polygon class="st0" points="79.9,0.8 83.3,7.6 84.5,7.3 81,0.6 					"/>
					<polygon class="st0" points="80,7.8 83.5,14.5 84.6,14.2 81.2,7.5 					"/>
					<polygon class="st0" points="79.8,33.6 81,33.7 84.6,16.4 83.4,16.3 					"/>
				</g>
			</g>
		</g>
	</g>
</g>
</svg>
